<mxfile host="65bd71144e" scale="1" border="10">
    <diagram id="6iYtnAA0bh0NGueBwueD" name="Architecture">
        <mxGraphModel dx="1181" dy="608" grid="1" gridSize="10" guides="1" tooltips="1" connect="1" arrows="1" fold="1" page="1" pageScale="1" pageWidth="850" pageHeight="1100" background="#C9C9C9" math="0" shadow="0">
            <root>
                <mxCell id="0"/>
                <mxCell id="1" parent="0"/>
                <mxCell id="EBO3f970umv6_g7wMhfV-8" value="" style="rounded=1;whiteSpace=wrap;html=1;fillColor=none;fontColor=#000000;labelBackgroundColor=default;" parent="1" vertex="1">
                    <mxGeometry x="290" y="60" width="535" height="320" as="geometry"/>
                </mxCell>
                <mxCell id="jqyDeOg6lsm_gDRewj5F-4" style="edgeStyle=orthogonalEdgeStyle;rounded=0;orthogonalLoop=1;jettySize=auto;html=1;exitX=1;exitY=0.25;exitDx=0;exitDy=0;strokeColor=none;fontColor=#000000;labelBackgroundColor=default;" parent="1" source="jqyDeOg6lsm_gDRewj5F-1" edge="1">
                    <mxGeometry relative="1" as="geometry">
                        <mxPoint x="360" y="180" as="targetPoint"/>
                    </mxGeometry>
                </mxCell>
                <mxCell id="jqyDeOg6lsm_gDRewj5F-8" style="edgeStyle=orthogonalEdgeStyle;rounded=0;orthogonalLoop=1;jettySize=auto;html=1;strokeColor=default;fontColor=#000000;labelBackgroundColor=default;exitX=1.033;exitY=0.65;exitDx=0;exitDy=0;exitPerimeter=0;" parent="1" source="jqyDeOg6lsm_gDRewj5F-1" edge="1">
                    <mxGeometry relative="1" as="geometry">
                        <mxPoint x="290" y="210" as="targetPoint"/>
                        <Array as="points"/>
                        <mxPoint x="150" y="210" as="sourcePoint"/>
                    </mxGeometry>
                </mxCell>
                <mxCell id="jqyDeOg6lsm_gDRewj5F-1" value="Client" style="whiteSpace=wrap;html=1;aspect=fixed;fontColor=#000000;labelBackgroundColor=default;" parent="1" vertex="1">
                    <mxGeometry x="80" y="170" width="60" height="60" as="geometry"/>
                </mxCell>
                <mxCell id="jqyDeOg6lsm_gDRewj5F-3" value="Validator" style="rounded=0;whiteSpace=wrap;html=1;fontColor=#000000;labelBackgroundColor=default;" parent="1" vertex="1">
                    <mxGeometry x="390" y="70" width="80" height="50" as="geometry"/>
                </mxCell>
                <mxCell id="jqyDeOg6lsm_gDRewj5F-6" value="" style="endArrow=classic;startArrow=classic;html=1;rounded=0;strokeColor=default;exitX=1;exitY=0.25;exitDx=0;exitDy=0;fontColor=#000000;labelBackgroundColor=default;entryX=-0.007;entryY=0.384;entryDx=0;entryDy=0;entryPerimeter=0;" parent="1" source="jqyDeOg6lsm_gDRewj5F-1" edge="1" target="EBO3f970umv6_g7wMhfV-8">
                    <mxGeometry width="50" height="50" relative="1" as="geometry">
                        <mxPoint x="400" y="410" as="sourcePoint"/>
                        <mxPoint x="280" y="187" as="targetPoint"/>
                    </mxGeometry>
                </mxCell>
                <mxCell id="jqyDeOg6lsm_gDRewj5F-7" value="AuthN and AuthZ&amp;nbsp;" style="text;html=1;strokeColor=none;fillColor=none;align=center;verticalAlign=middle;whiteSpace=wrap;rounded=0;fontColor=#000000;labelBackgroundColor=none;" parent="1" vertex="1">
                    <mxGeometry x="165" y="150" width="105" height="20" as="geometry"/>
                </mxCell>
                <mxCell id="jqyDeOg6lsm_gDRewj5F-9" value="call API" style="text;html=1;strokeColor=none;fillColor=none;align=center;verticalAlign=middle;whiteSpace=wrap;rounded=0;fontColor=#000000;labelBackgroundColor=none;" parent="1" vertex="1">
                    <mxGeometry x="180" y="185" width="75" height="20" as="geometry"/>
                </mxCell>
                <mxCell id="jqyDeOg6lsm_gDRewj5F-38" style="edgeStyle=orthogonalEdgeStyle;rounded=0;orthogonalLoop=1;jettySize=auto;html=1;exitX=0.5;exitY=1;exitDx=0;exitDy=0;entryX=0.5;entryY=0;entryDx=0;entryDy=0;strokeColor=default;fontColor=#000000;labelBackgroundColor=default;startArrow=none;" parent="1" source="2" target="jqyDeOg6lsm_gDRewj5F-22" edge="1">
                    <mxGeometry relative="1" as="geometry"/>
                </mxCell>
                <mxCell id="jqyDeOg6lsm_gDRewj5F-19" value="Request/Response Handler" style="rounded=0;whiteSpace=wrap;html=1;fontColor=#000000;labelBackgroundColor=default;" parent="1" vertex="1">
                    <mxGeometry x="370" y="160" width="110" height="70" as="geometry"/>
                </mxCell>
                <mxCell id="jqyDeOg6lsm_gDRewj5F-21" value="Security layer" style="text;html=1;strokeColor=none;fillColor=none;align=center;verticalAlign=middle;whiteSpace=wrap;rounded=0;fontColor=#000000;labelBackgroundColor=none;" parent="1" vertex="1">
                    <mxGeometry x="426.25" y="130" width="60" height="30" as="geometry"/>
                </mxCell>
                <mxCell id="jqyDeOg6lsm_gDRewj5F-31" style="edgeStyle=orthogonalEdgeStyle;rounded=0;orthogonalLoop=1;jettySize=auto;html=1;exitX=0.5;exitY=1;exitDx=0;exitDy=0;entryX=0.383;entryY=-0.017;entryDx=0;entryDy=0;entryPerimeter=0;strokeColor=default;fontColor=#000000;labelBackgroundColor=default;" parent="1" source="jqyDeOg6lsm_gDRewj5F-22" target="jqyDeOg6lsm_gDRewj5F-26" edge="1">
                    <mxGeometry relative="1" as="geometry">
                        <Array as="points">
                            <mxPoint x="482" y="350"/>
                        </Array>
                    </mxGeometry>
                </mxCell>
                <mxCell id="jqyDeOg6lsm_gDRewj5F-22" value="Dispatcher" style="rounded=0;whiteSpace=wrap;html=1;fontColor=#000000;labelBackgroundColor=default;" parent="1" vertex="1">
                    <mxGeometry x="425" y="330" width="85" height="40" as="geometry"/>
                </mxCell>
                <mxCell id="jqyDeOg6lsm_gDRewj5F-33" style="edgeStyle=orthogonalEdgeStyle;rounded=0;orthogonalLoop=1;jettySize=auto;html=1;exitX=1;exitY=0.5;exitDx=0;exitDy=0;strokeColor=default;entryX=0.5;entryY=1;entryDx=0;entryDy=0;fontColor=#000000;labelBackgroundColor=default;" parent="1" source="jqyDeOg6lsm_gDRewj5F-26" target="jqyDeOg6lsm_gDRewj5F-34" edge="1">
                    <mxGeometry relative="1" as="geometry">
                        <mxPoint x="660" y="360" as="targetPoint"/>
                    </mxGeometry>
                </mxCell>
                <mxCell id="jqyDeOg6lsm_gDRewj5F-26" value="Worker Service&lt;br&gt;(ID 1)" style="rounded=0;whiteSpace=wrap;html=1;fontColor=#000000;labelBackgroundColor=default;" parent="1" vertex="1">
                    <mxGeometry x="460" y="400" width="60" height="60" as="geometry"/>
                </mxCell>
                <mxCell id="jqyDeOg6lsm_gDRewj5F-27" value="" style="fontColor=#000000;verticalAlign=top;verticalLabelPosition=bottom;labelPosition=center;align=center;html=1;outlineConnect=0;fillColor=#CCCCCC;strokeColor=#6881B3;gradientColor=none;gradientDirection=north;strokeWidth=2;shape=mxgraph.networks.server;labelBackgroundColor=default;" parent="1" vertex="1">
                    <mxGeometry x="462.5" y="510" width="55" height="60" as="geometry"/>
                </mxCell>
                <mxCell id="jqyDeOg6lsm_gDRewj5F-28" value="" style="endArrow=classic;startArrow=classic;html=1;rounded=0;strokeColor=default;entryX=0.5;entryY=0;entryDx=0;entryDy=0;entryPerimeter=0;exitX=0.5;exitY=1;exitDx=0;exitDy=0;fontColor=#000000;labelBackgroundColor=default;" parent="1" source="jqyDeOg6lsm_gDRewj5F-26" target="jqyDeOg6lsm_gDRewj5F-27" edge="1">
                    <mxGeometry width="50" height="50" relative="1" as="geometry">
                        <mxPoint x="585" y="390" as="sourcePoint"/>
                        <mxPoint x="635" y="340" as="targetPoint"/>
                        <Array as="points"/>
                    </mxGeometry>
                </mxCell>
                <mxCell id="jqyDeOg6lsm_gDRewj5F-34" value="Job Registery&lt;br&gt;(Job ID, user ID, status, output)" style="rounded=0;whiteSpace=wrap;html=1;fontColor=#000000;labelBackgroundColor=default;" parent="1" vertex="1">
                    <mxGeometry x="660" y="240" width="120" height="60" as="geometry"/>
                </mxCell>
                <mxCell id="jqyDeOg6lsm_gDRewj5F-36" value="" style="endArrow=classic;startArrow=none;html=1;rounded=0;strokeColor=default;exitX=0.167;exitY=0.033;exitDx=0;exitDy=0;exitPerimeter=0;fontColor=#000000;labelBackgroundColor=default;" parent="1" source="jqyDeOg6lsm_gDRewj5F-37" edge="1">
                    <mxGeometry width="50" height="50" relative="1" as="geometry">
                        <mxPoint x="680" y="280" as="sourcePoint"/>
                        <mxPoint x="480" y="200" as="targetPoint"/>
                        <Array as="points"/>
                    </mxGeometry>
                </mxCell>
                <mxCell id="jqyDeOg6lsm_gDRewj5F-39" value="Job + worker info" style="text;html=1;strokeColor=none;fillColor=none;align=center;verticalAlign=middle;whiteSpace=wrap;rounded=0;fontColor=#000000;labelBackgroundColor=none;" parent="1" vertex="1">
                    <mxGeometry x="452.5" y="300" width="127.5" height="30" as="geometry"/>
                </mxCell>
                <mxCell id="jqyDeOg6lsm_gDRewj5F-40" value="Update Job status, output and worker info for the job id" style="text;html=1;strokeColor=none;fillColor=none;align=center;verticalAlign=middle;whiteSpace=wrap;rounded=0;fontColor=#000000;labelBackgroundColor=none;" parent="1" vertex="1">
                    <mxGeometry x="726.25" y="400" width="75" height="40" as="geometry"/>
                </mxCell>
                <mxCell id="jqyDeOg6lsm_gDRewj5F-44" value="" style="endArrow=classic;startArrow=classic;html=1;rounded=0;strokeColor=default;fontColor=#000000;labelBackgroundColor=default;entryX=1.027;entryY=0.143;entryDx=0;entryDy=0;entryPerimeter=0;exitX=0.75;exitY=0;exitDx=0;exitDy=0;" parent="1" source="jqyDeOg6lsm_gDRewj5F-34" target="jqyDeOg6lsm_gDRewj5F-19" edge="1">
                    <mxGeometry width="50" height="50" relative="1" as="geometry">
                        <mxPoint x="730" y="330" as="sourcePoint"/>
                        <mxPoint x="630" y="170" as="targetPoint"/>
                        <Array as="points">
                            <mxPoint x="750" y="170"/>
                        </Array>
                    </mxGeometry>
                </mxCell>
                <mxCell id="jqyDeOg6lsm_gDRewj5F-45" value="Query Status/ stream output: Look up worker info" style="text;html=1;strokeColor=none;fillColor=none;align=center;verticalAlign=middle;whiteSpace=wrap;rounded=0;fontColor=#000000;labelBackgroundColor=none;" parent="1" vertex="1">
                    <mxGeometry x="580" y="120" width="162.5" height="60" as="geometry"/>
                </mxCell>
                <mxCell id="EBO3f970umv6_g7wMhfV-1" value="" style="endArrow=none;dashed=1;html=1;dashPattern=1 3;strokeWidth=2;rounded=0;fontColor=#000000;labelBackgroundColor=default;" parent="1" edge="1">
                    <mxGeometry width="50" height="50" relative="1" as="geometry">
                        <mxPoint x="425" y="429" as="sourcePoint"/>
                        <mxPoint x="455" y="429" as="targetPoint"/>
                        <Array as="points">
                            <mxPoint x="425" y="429"/>
                        </Array>
                    </mxGeometry>
                </mxCell>
                <mxCell id="EBO3f970umv6_g7wMhfV-2" value="Worker Service&lt;br&gt;(ID N)" style="rounded=0;whiteSpace=wrap;html=1;fontColor=#000000;labelBackgroundColor=default;" parent="1" vertex="1">
                    <mxGeometry x="360" y="400" width="60" height="60" as="geometry"/>
                </mxCell>
                <mxCell id="EBO3f970umv6_g7wMhfV-3" value="" style="fontColor=#000000;verticalAlign=top;verticalLabelPosition=bottom;labelPosition=center;align=center;html=1;outlineConnect=0;fillColor=#CCCCCC;strokeColor=#6881B3;gradientColor=none;gradientDirection=north;strokeWidth=2;shape=mxgraph.networks.server;labelBackgroundColor=default;" parent="1" vertex="1">
                    <mxGeometry x="362.5" y="510" width="55" height="60" as="geometry"/>
                </mxCell>
                <mxCell id="EBO3f970umv6_g7wMhfV-4" value="" style="endArrow=classic;startArrow=classic;html=1;rounded=0;strokeColor=default;entryX=0.5;entryY=0;entryDx=0;entryDy=0;entryPerimeter=0;exitX=0.5;exitY=1;exitDx=0;exitDy=0;fontColor=#000000;labelBackgroundColor=default;" parent="1" source="EBO3f970umv6_g7wMhfV-2" target="EBO3f970umv6_g7wMhfV-3" edge="1">
                    <mxGeometry width="50" height="50" relative="1" as="geometry">
                        <mxPoint x="485" y="390" as="sourcePoint"/>
                        <mxPoint x="535" y="340" as="targetPoint"/>
                        <Array as="points"/>
                    </mxGeometry>
                </mxCell>
                <mxCell id="EBO3f970umv6_g7wMhfV-6" value="" style="endArrow=classic;html=1;rounded=0;exitX=0.25;exitY=1;exitDx=0;exitDy=0;entryX=0.5;entryY=0;entryDx=0;entryDy=0;dashed=1;fontColor=#000000;labelBackgroundColor=default;" parent="1" source="jqyDeOg6lsm_gDRewj5F-22" target="EBO3f970umv6_g7wMhfV-2" edge="1">
                    <mxGeometry width="50" height="50" relative="1" as="geometry">
                        <mxPoint x="310" y="380" as="sourcePoint"/>
                        <mxPoint x="300" y="430" as="targetPoint"/>
                    </mxGeometry>
                </mxCell>
                <mxCell id="EBO3f970umv6_g7wMhfV-9" value="Job Runner Service" style="text;strokeColor=none;fillColor=none;align=left;verticalAlign=middle;spacingLeft=4;spacingRight=4;overflow=hidden;points=[[0,0.5],[1,0.5]];portConstraint=eastwest;rotatable=0;fontColor=#000000;labelBackgroundColor=none;" parent="1" vertex="1">
                    <mxGeometry x="520" y="60" width="125" height="30" as="geometry"/>
                </mxCell>
                <mxCell id="EBO3f970umv6_g7wMhfV-10" value="Infrastructure" style="text;html=1;strokeColor=none;fillColor=none;align=center;verticalAlign=middle;whiteSpace=wrap;rounded=0;fontColor=#000000;labelBackgroundColor=default;" parent="1" vertex="1">
                    <mxGeometry x="402.5" y="580" width="60" height="30" as="geometry"/>
                </mxCell>
                <mxCell id="3" value="" style="endArrow=classic;html=1;rounded=0;exitX=0;exitY=0.5;exitDx=0;exitDy=0;dashed=1;fontColor=#000000;labelBackgroundColor=default;entryX=0;entryY=0.5;entryDx=0;entryDy=0;" parent="1" source="EBO3f970umv6_g7wMhfV-2" target="2" edge="1">
                    <mxGeometry width="50" height="50" relative="1" as="geometry">
                        <mxPoint x="345" y="420" as="sourcePoint"/>
                        <mxPoint x="280" y="270" as="targetPoint"/>
                        <Array as="points">
                            <mxPoint x="280" y="430"/>
                            <mxPoint x="280" y="280"/>
                        </Array>
                    </mxGeometry>
                </mxCell>
                <mxCell id="4" value="New workers register with the worker monitor" style="text;html=1;strokeColor=none;fillColor=none;align=center;verticalAlign=middle;whiteSpace=wrap;rounded=0;fontColor=#000000;labelBackgroundColor=none;" parent="1" vertex="1">
                    <mxGeometry x="150" y="330" width="127.5" height="30" as="geometry"/>
                </mxCell>
                <mxCell id="2" value="Worker Monitor" style="rounded=0;whiteSpace=wrap;html=1;fontColor=#000000;labelBackgroundColor=default;" parent="1" vertex="1">
                    <mxGeometry x="402.5" y="260" width="107.5" height="40" as="geometry"/>
                </mxCell>
                <mxCell id="5" value="" style="edgeStyle=orthogonalEdgeStyle;rounded=0;orthogonalLoop=1;jettySize=auto;html=1;exitX=0.5;exitY=1;exitDx=0;exitDy=0;entryX=0.25;entryY=0;entryDx=0;entryDy=0;strokeColor=default;fontColor=#000000;labelBackgroundColor=default;endArrow=classic;endFill=1;" parent="1" source="jqyDeOg6lsm_gDRewj5F-19" target="2" edge="1">
                    <mxGeometry relative="1" as="geometry">
                        <mxPoint x="425" y="230" as="sourcePoint"/>
                        <mxPoint x="467.5" y="330" as="targetPoint"/>
                    </mxGeometry>
                </mxCell>
                <mxCell id="7" value="" style="endArrow=classic;html=1;entryX=0.317;entryY=1.017;entryDx=0;entryDy=0;entryPerimeter=0;exitX=1;exitY=0.5;exitDx=0;exitDy=0;" parent="1" source="jqyDeOg6lsm_gDRewj5F-22" target="jqyDeOg6lsm_gDRewj5F-34" edge="1">
                    <mxGeometry width="50" height="50" relative="1" as="geometry">
                        <mxPoint x="400" y="420" as="sourcePoint"/>
                        <mxPoint x="450" y="370" as="targetPoint"/>
                        <Array as="points">
                            <mxPoint x="698" y="350"/>
                        </Array>
                    </mxGeometry>
                </mxCell>
                <mxCell id="jqyDeOg6lsm_gDRewj5F-37" value="Look up worker info for a job id" style="text;html=1;strokeColor=none;fillColor=none;align=center;verticalAlign=middle;whiteSpace=wrap;rounded=0;fontColor=#000000;labelBackgroundColor=none;" parent="1" vertex="1">
                    <mxGeometry x="508.75" y="200" width="130" as="geometry"/>
                </mxCell>
                <mxCell id="10" value="" style="endArrow=none;startArrow=classic;html=1;rounded=0;strokeColor=default;exitX=0.167;exitY=0.033;exitDx=0;exitDy=0;exitPerimeter=0;fontColor=#000000;labelBackgroundColor=default;entryX=1.018;entryY=0.614;entryDx=0;entryDy=0;entryPerimeter=0;" parent="1" source="jqyDeOg6lsm_gDRewj5F-34" target="jqyDeOg6lsm_gDRewj5F-37" edge="1">
                    <mxGeometry width="50" height="50" relative="1" as="geometry">
                        <mxPoint x="680.04" y="241.98000000000002" as="sourcePoint"/>
                        <mxPoint x="481.98" y="202.98000000000002" as="targetPoint"/>
                        <Array as="points">
                            <mxPoint x="680" y="200"/>
                        </Array>
                    </mxGeometry>
                </mxCell>
                <mxCell id="11" value="" style="endArrow=classic;startArrow=classic;html=1;entryX=0.425;entryY=1.04;entryDx=0;entryDy=0;entryPerimeter=0;" parent="1" target="jqyDeOg6lsm_gDRewj5F-3" edge="1">
                    <mxGeometry width="50" height="50" relative="1" as="geometry">
                        <mxPoint x="424" y="160" as="sourcePoint"/>
                        <mxPoint x="435" y="120" as="targetPoint"/>
                        <Array as="points"/>
                    </mxGeometry>
                </mxCell>
                <mxCell id="14" value="Register job id and user id" style="text;html=1;strokeColor=none;fillColor=none;align=center;verticalAlign=middle;whiteSpace=wrap;rounded=0;fontColor=#000000;labelBackgroundColor=none;" parent="1" vertex="1">
                    <mxGeometry x="570" y="320" width="127.5" height="30" as="geometry"/>
                </mxCell>
                <mxCell id="XkZEOcDYWYtH_7BBC6HF-14" value="Job" style="text;html=1;strokeColor=none;fillColor=none;align=center;verticalAlign=middle;whiteSpace=wrap;rounded=0;fontColor=#000000;labelBackgroundColor=none;" parent="1" vertex="1">
                    <mxGeometry x="438.75" y="230" width="47.5" height="30" as="geometry"/>
                </mxCell>
            </root>
        </mxGraphModel>
    </diagram>
    <diagram id="_uW1dMEGAhS8fLdhEjaY" name="Flow Diagram- Create/Stop job">
        <mxGraphModel dx="1074" dy="768" grid="1" gridSize="10" guides="1" tooltips="1" connect="1" arrows="1" fold="1" page="1" pageScale="1" pageWidth="850" pageHeight="1100" background="#C9C9C9" math="0" shadow="0">
            <root>
                <mxCell id="tO9CpB2dFLnADmU-4jLJ-0"/>
                <mxCell id="tO9CpB2dFLnADmU-4jLJ-1" parent="tO9CpB2dFLnADmU-4jLJ-0"/>
                <mxCell id="c2odjl9ll0wSxm09Ags0-37" value="Client&lt;br&gt;" style="whiteSpace=wrap;html=1;aspect=fixed;fontColor=#000000;labelBackgroundColor=default;" vertex="1" parent="tO9CpB2dFLnADmU-4jLJ-1">
                    <mxGeometry x="362.5" y="40" width="50" height="50" as="geometry"/>
                </mxCell>
                <mxCell id="c2odjl9ll0wSxm09Ags0-38" style="edgeStyle=orthogonalEdgeStyle;rounded=0;orthogonalLoop=1;jettySize=auto;html=1;exitX=0.5;exitY=1;exitDx=0;exitDy=0;strokeColor=default;fontColor=#000000;labelBackgroundColor=default;entryX=0.5;entryY=0;entryDx=0;entryDy=0;" edge="1" parent="tO9CpB2dFLnADmU-4jLJ-1" source="c2odjl9ll0wSxm09Ags0-37" target="c2odjl9ll0wSxm09Ags0-40">
                    <mxGeometry relative="1" as="geometry">
                        <mxPoint x="387.5" y="125" as="targetPoint"/>
                        <Array as="points"/>
                        <mxPoint x="152.5" y="160" as="sourcePoint"/>
                    </mxGeometry>
                </mxCell>
                <mxCell id="c2odjl9ll0wSxm09Ags0-39" value="Send Request" style="text;html=1;strokeColor=none;fillColor=none;align=center;verticalAlign=middle;whiteSpace=wrap;rounded=0;fontColor=#000000;" vertex="1" parent="tO9CpB2dFLnADmU-4jLJ-1">
                    <mxGeometry x="397.5" y="100" width="60" height="30" as="geometry"/>
                </mxCell>
                <mxCell id="c2odjl9ll0wSxm09Ags0-40" value="Security&lt;br&gt;Check" style="rhombus;whiteSpace=wrap;html=1;fontColor=#000000;" vertex="1" parent="tO9CpB2dFLnADmU-4jLJ-1">
                    <mxGeometry x="347.5" y="130" width="80" height="80" as="geometry"/>
                </mxCell>
                <mxCell id="c2odjl9ll0wSxm09Ags0-41" value="" style="endArrow=none;html=1;entryX=0;entryY=0.5;entryDx=0;entryDy=0;exitX=0;exitY=0.5;exitDx=0;exitDy=0;rounded=0;startArrow=classic;startFill=1;endFill=0;" edge="1" parent="tO9CpB2dFLnADmU-4jLJ-1" source="c2odjl9ll0wSxm09Ags0-37" target="c2odjl9ll0wSxm09Ags0-40">
                    <mxGeometry width="50" height="50" relative="1" as="geometry">
                        <mxPoint x="337.5" y="250" as="sourcePoint"/>
                        <mxPoint x="387.5" y="200" as="targetPoint"/>
                        <Array as="points">
                            <mxPoint x="317.5" y="65"/>
                            <mxPoint x="317.5" y="170"/>
                        </Array>
                    </mxGeometry>
                </mxCell>
                <mxCell id="c2odjl9ll0wSxm09Ags0-42" value="Fail" style="text;html=1;strokeColor=none;fillColor=none;align=center;verticalAlign=middle;whiteSpace=wrap;rounded=0;fontColor=#000000;" vertex="1" parent="tO9CpB2dFLnADmU-4jLJ-1">
                    <mxGeometry x="257.5" y="100" width="60" height="30" as="geometry"/>
                </mxCell>
                <mxCell id="c2odjl9ll0wSxm09Ags0-45" value="" style="endArrow=classic;html=1;rounded=0;exitX=0.5;exitY=1;exitDx=0;exitDy=0;fontColor=#000000;" edge="1" parent="tO9CpB2dFLnADmU-4jLJ-1" source="c2odjl9ll0wSxm09Ags0-40">
                    <mxGeometry width="50" height="50" relative="1" as="geometry">
                        <mxPoint x="337.5" y="260" as="sourcePoint"/>
                        <mxPoint x="387.5" y="240" as="targetPoint"/>
                    </mxGeometry>
                </mxCell>
                <mxCell id="c2odjl9ll0wSxm09Ags0-46" value="Pass" style="text;html=1;strokeColor=none;fillColor=none;align=center;verticalAlign=middle;whiteSpace=wrap;rounded=0;fontColor=#000000;" vertex="1" parent="tO9CpB2dFLnADmU-4jLJ-1">
                    <mxGeometry x="397.5" y="200" width="60" height="30" as="geometry"/>
                </mxCell>
                <mxCell id="T6xFo-Tykz1jxSFSK6hM-0" style="edgeStyle=none;rounded=0;html=1;exitX=0;exitY=0.5;exitDx=0;exitDy=0;entryX=0;entryY=0.25;entryDx=0;entryDy=0;fontColor=#000000;startArrow=none;startFill=0;endArrow=classic;endFill=1;" edge="1" parent="tO9CpB2dFLnADmU-4jLJ-1" source="c2odjl9ll0wSxm09Ags0-47" target="c2odjl9ll0wSxm09Ags0-37">
                    <mxGeometry relative="1" as="geometry">
                        <Array as="points">
                            <mxPoint x="260" y="260"/>
                            <mxPoint x="260" y="53"/>
                        </Array>
                    </mxGeometry>
                </mxCell>
                <mxCell id="c2odjl9ll0wSxm09Ags0-47" value="Request/Response Handler" style="rounded=0;whiteSpace=wrap;html=1;fontColor=#000000;labelBackgroundColor=default;" vertex="1" parent="tO9CpB2dFLnADmU-4jLJ-1">
                    <mxGeometry x="332.5" y="240" width="110" height="40" as="geometry"/>
                </mxCell>
                <mxCell id="c2odjl9ll0wSxm09Ags0-51" style="edgeStyle=none;rounded=0;html=1;exitX=0.5;exitY=0;exitDx=0;exitDy=0;entryX=0.5;entryY=1;entryDx=0;entryDy=0;fontColor=#000000;startArrow=classic;startFill=1;endArrow=none;endFill=0;" edge="1" parent="tO9CpB2dFLnADmU-4jLJ-1" source="c2odjl9ll0wSxm09Ags0-50" target="c2odjl9ll0wSxm09Ags0-47">
                    <mxGeometry relative="1" as="geometry"/>
                </mxCell>
                <mxCell id="P8HddEMpkEidJls8VGsz-6" style="edgeStyle=none;rounded=0;html=1;exitX=0.5;exitY=1;exitDx=0;exitDy=0;entryX=0.5;entryY=0;entryDx=0;entryDy=0;fontColor=#000000;startArrow=none;startFill=0;endArrow=classic;endFill=1;" edge="1" parent="tO9CpB2dFLnADmU-4jLJ-1" source="c2odjl9ll0wSxm09Ags0-50" target="P8HddEMpkEidJls8VGsz-3">
                    <mxGeometry relative="1" as="geometry"/>
                </mxCell>
                <mxCell id="c2odjl9ll0wSxm09Ags0-50" value="Worker Monitor" style="rounded=0;whiteSpace=wrap;html=1;fontColor=#000000;labelBackgroundColor=default;" vertex="1" parent="tO9CpB2dFLnADmU-4jLJ-1">
                    <mxGeometry x="332.5" y="320" width="110" height="40" as="geometry"/>
                </mxCell>
                <mxCell id="c2odjl9ll0wSxm09Ags0-52" value="Create Job" style="text;html=1;strokeColor=none;fillColor=none;align=center;verticalAlign=middle;whiteSpace=wrap;rounded=0;fontColor=#000000;" vertex="1" parent="tO9CpB2dFLnADmU-4jLJ-1">
                    <mxGeometry x="390" y="290" width="60" height="30" as="geometry"/>
                </mxCell>
                <mxCell id="P8HddEMpkEidJls8VGsz-2" style="edgeStyle=none;rounded=0;html=1;exitX=0.25;exitY=1;exitDx=0;exitDy=0;entryX=1;entryY=0.5;entryDx=0;entryDy=0;fontColor=#000000;startArrow=classic;startFill=1;endArrow=classic;endFill=1;" edge="1" parent="tO9CpB2dFLnADmU-4jLJ-1" source="P8HddEMpkEidJls8VGsz-0" target="c2odjl9ll0wSxm09Ags0-47">
                    <mxGeometry relative="1" as="geometry">
                        <Array as="points">
                            <mxPoint x="530" y="260"/>
                        </Array>
                    </mxGeometry>
                </mxCell>
                <mxCell id="P8HddEMpkEidJls8VGsz-0" value="Job Registery&lt;br&gt;(Job ID, user ID, status, output)" style="rounded=0;whiteSpace=wrap;html=1;fontColor=#000000;labelBackgroundColor=default;" vertex="1" parent="tO9CpB2dFLnADmU-4jLJ-1">
                    <mxGeometry x="498.75" y="140" width="120" height="60" as="geometry"/>
                </mxCell>
                <mxCell id="P8HddEMpkEidJls8VGsz-4" value="" style="swimlane;startSize=0;fontColor=#000000;" vertex="1" parent="tO9CpB2dFLnADmU-4jLJ-1">
                    <mxGeometry x="265.63" y="130" width="363.75" height="350" as="geometry"/>
                </mxCell>
                <mxCell id="P8HddEMpkEidJls8VGsz-3" value="Dispatcher" style="rounded=0;whiteSpace=wrap;html=1;fontColor=#000000;labelBackgroundColor=default;" vertex="1" parent="P8HddEMpkEidJls8VGsz-4">
                    <mxGeometry x="66.87" y="270" width="110" height="40" as="geometry"/>
                </mxCell>
                <mxCell id="P8HddEMpkEidJls8VGsz-1" value="If Stop Job: find out worker info for the job" style="text;html=1;strokeColor=none;fillColor=none;align=center;verticalAlign=middle;whiteSpace=wrap;rounded=0;fontColor=#000000;" vertex="1" parent="P8HddEMpkEidJls8VGsz-4">
                    <mxGeometry x="176.87" y="140" width="161.25" height="20" as="geometry"/>
                </mxCell>
                <mxCell id="P8HddEMpkEidJls8VGsz-10" value="If Create Job: register job id anduser id" style="text;html=1;strokeColor=none;fillColor=none;align=center;verticalAlign=middle;whiteSpace=wrap;rounded=0;fontColor=#000000;" vertex="1" parent="P8HddEMpkEidJls8VGsz-4">
                    <mxGeometry x="184.37" y="300" width="161.25" height="20" as="geometry"/>
                </mxCell>
                <mxCell id="T6xFo-Tykz1jxSFSK6hM-1" value="Send response" style="text;html=1;strokeColor=none;fillColor=none;align=center;verticalAlign=middle;whiteSpace=wrap;rounded=0;fontColor=#000000;" vertex="1" parent="P8HddEMpkEidJls8VGsz-4">
                    <mxGeometry x="-5.6299999999999955" y="50" width="60" height="30" as="geometry"/>
                </mxCell>
                <mxCell id="P8HddEMpkEidJls8VGsz-5" value="Job runner Service:&lt;br&gt;Hosted any where" style="text;html=1;strokeColor=none;fillColor=none;align=center;verticalAlign=middle;whiteSpace=wrap;rounded=0;fontColor=#000000;" vertex="1" parent="tO9CpB2dFLnADmU-4jLJ-1">
                    <mxGeometry x="190" y="270" width="60" height="30" as="geometry"/>
                </mxCell>
                <mxCell id="P8HddEMpkEidJls8VGsz-11" style="edgeStyle=none;rounded=0;html=1;exitX=1;exitY=0.5;exitDx=0;exitDy=0;entryX=1;entryY=0.5;entryDx=0;entryDy=0;fontColor=#000000;startArrow=none;startFill=0;endArrow=classic;endFill=1;" edge="1" parent="tO9CpB2dFLnADmU-4jLJ-1" source="P8HddEMpkEidJls8VGsz-7" target="P8HddEMpkEidJls8VGsz-0">
                    <mxGeometry relative="1" as="geometry">
                        <Array as="points">
                            <mxPoint x="680" y="540"/>
                            <mxPoint x="680" y="170"/>
                        </Array>
                    </mxGeometry>
                </mxCell>
                <mxCell id="P8HddEMpkEidJls8VGsz-7" value="Worker Service&lt;br&gt;" style="rounded=0;whiteSpace=wrap;html=1;fontColor=#000000;labelBackgroundColor=default;" vertex="1" parent="tO9CpB2dFLnADmU-4jLJ-1">
                    <mxGeometry x="357.5" y="510" width="60" height="60" as="geometry"/>
                </mxCell>
                <mxCell id="P8HddEMpkEidJls8VGsz-9" style="edgeStyle=none;rounded=0;html=1;exitX=1;exitY=0.5;exitDx=0;exitDy=0;entryX=0.75;entryY=1;entryDx=0;entryDy=0;fontColor=#000000;startArrow=none;startFill=0;endArrow=classic;endFill=1;" edge="1" parent="tO9CpB2dFLnADmU-4jLJ-1" source="P8HddEMpkEidJls8VGsz-3" target="P8HddEMpkEidJls8VGsz-0">
                    <mxGeometry relative="1" as="geometry">
                        <Array as="points">
                            <mxPoint x="589" y="420"/>
                        </Array>
                    </mxGeometry>
                </mxCell>
                <mxCell id="P8HddEMpkEidJls8VGsz-12" value="Update job status and output" style="text;html=1;strokeColor=none;fillColor=none;align=center;verticalAlign=middle;whiteSpace=wrap;rounded=0;fontColor=#000000;" vertex="1" parent="tO9CpB2dFLnADmU-4jLJ-1">
                    <mxGeometry x="440" y="510" width="161.25" height="20" as="geometry"/>
                </mxCell>
                <mxCell id="P8HddEMpkEidJls8VGsz-13" style="edgeStyle=none;rounded=0;html=1;exitX=0.5;exitY=1;exitDx=0;exitDy=0;entryX=0.5;entryY=0;entryDx=0;entryDy=0;fontColor=#000000;startArrow=none;startFill=0;endArrow=classic;endFill=1;" edge="1" parent="tO9CpB2dFLnADmU-4jLJ-1" source="P8HddEMpkEidJls8VGsz-3" target="P8HddEMpkEidJls8VGsz-7">
                    <mxGeometry relative="1" as="geometry"/>
                </mxCell>
                <mxCell id="P8HddEMpkEidJls8VGsz-15" value="" style="swimlane;startSize=0;fontColor=#000000;" vertex="1" parent="tO9CpB2dFLnADmU-4jLJ-1">
                    <mxGeometry x="292.5" y="500" width="187.5" height="140" as="geometry">
                        <mxRectangle x="292.5" y="820" width="50" height="40" as="alternateBounds"/>
                    </mxGeometry>
                </mxCell>
                <mxCell id="P8HddEMpkEidJls8VGsz-19" value="Linux process" style="shape=process;whiteSpace=wrap;html=1;backgroundOutline=1;fontColor=#000000;rotation=0;" vertex="1" parent="P8HddEMpkEidJls8VGsz-15">
                    <mxGeometry x="45" y="100" width="105" height="20" as="geometry"/>
                </mxCell>
                <mxCell id="P8HddEMpkEidJls8VGsz-21" value="Execute job" style="text;html=1;strokeColor=none;fillColor=none;align=center;verticalAlign=middle;whiteSpace=wrap;rounded=0;fontColor=#000000;" vertex="1" parent="P8HddEMpkEidJls8VGsz-15">
                    <mxGeometry x="112.5" y="70" width="60" height="30" as="geometry"/>
                </mxCell>
                <mxCell id="P8HddEMpkEidJls8VGsz-16" value="Worker&lt;br&gt;Service:&lt;br&gt;runs on all linux workers&amp;nbsp;" style="text;html=1;strokeColor=none;fillColor=none;align=center;verticalAlign=middle;whiteSpace=wrap;rounded=0;fontColor=#000000;" vertex="1" parent="tO9CpB2dFLnADmU-4jLJ-1">
                    <mxGeometry x="205.63" y="530" width="60" height="30" as="geometry"/>
                </mxCell>
                <mxCell id="P8HddEMpkEidJls8VGsz-20" value="" style="endArrow=classic;startArrow=classic;html=1;rounded=0;fontColor=#000000;entryX=0.5;entryY=1;entryDx=0;entryDy=0;" edge="1" parent="tO9CpB2dFLnADmU-4jLJ-1" target="P8HddEMpkEidJls8VGsz-7">
                    <mxGeometry width="50" height="50" relative="1" as="geometry">
                        <mxPoint x="388" y="600" as="sourcePoint"/>
                        <mxPoint x="400" y="470" as="targetPoint"/>
                    </mxGeometry>
                </mxCell>
            </root>
        </mxGraphModel>
    </diagram>
    <diagram id="24nB5nIzj0ex-FgbI-ef" name="FlowDiagram-QueryStatusOutput">
        <mxGraphModel dx="1074" dy="768" grid="1" gridSize="10" guides="1" tooltips="1" connect="1" arrows="1" fold="1" page="1" pageScale="1" pageWidth="850" pageHeight="1100" background="#C9C9C9" math="0" shadow="0">
            <root>
                <mxCell id="eE7crEISOZ_tEfes29lh-0"/>
                <mxCell id="eE7crEISOZ_tEfes29lh-1" parent="eE7crEISOZ_tEfes29lh-0"/>
                <mxCell id="QuqB5jz6b60mE_OSVaNS-0" value="Client&lt;br&gt;" style="whiteSpace=wrap;html=1;aspect=fixed;fontColor=#000000;labelBackgroundColor=default;" vertex="1" parent="eE7crEISOZ_tEfes29lh-1">
                    <mxGeometry x="352.5" y="50" width="50" height="50" as="geometry"/>
                </mxCell>
                <mxCell id="QuqB5jz6b60mE_OSVaNS-1" style="edgeStyle=orthogonalEdgeStyle;rounded=0;orthogonalLoop=1;jettySize=auto;html=1;exitX=0.5;exitY=1;exitDx=0;exitDy=0;strokeColor=default;fontColor=#000000;labelBackgroundColor=default;entryX=0.5;entryY=0;entryDx=0;entryDy=0;" edge="1" parent="eE7crEISOZ_tEfes29lh-1" source="QuqB5jz6b60mE_OSVaNS-0" target="QuqB5jz6b60mE_OSVaNS-3">
                    <mxGeometry relative="1" as="geometry">
                        <mxPoint x="377.5" y="135" as="targetPoint"/>
                        <Array as="points"/>
                        <mxPoint x="142.5" y="170" as="sourcePoint"/>
                    </mxGeometry>
                </mxCell>
                <mxCell id="QuqB5jz6b60mE_OSVaNS-2" value="Send Request" style="text;html=1;strokeColor=none;fillColor=none;align=center;verticalAlign=middle;whiteSpace=wrap;rounded=0;fontColor=#000000;" vertex="1" parent="eE7crEISOZ_tEfes29lh-1">
                    <mxGeometry x="387.5" y="110" width="60" height="30" as="geometry"/>
                </mxCell>
                <mxCell id="QuqB5jz6b60mE_OSVaNS-3" value="Security&lt;br&gt;Check" style="rhombus;whiteSpace=wrap;html=1;fontColor=#000000;" vertex="1" parent="eE7crEISOZ_tEfes29lh-1">
                    <mxGeometry x="337.5" y="140" width="80" height="80" as="geometry"/>
                </mxCell>
                <mxCell id="QuqB5jz6b60mE_OSVaNS-4" value="" style="endArrow=none;html=1;entryX=0;entryY=0.5;entryDx=0;entryDy=0;exitX=0;exitY=0.5;exitDx=0;exitDy=0;rounded=0;startArrow=classic;startFill=1;endFill=0;" edge="1" parent="eE7crEISOZ_tEfes29lh-1" source="QuqB5jz6b60mE_OSVaNS-0" target="QuqB5jz6b60mE_OSVaNS-3">
                    <mxGeometry width="50" height="50" relative="1" as="geometry">
                        <mxPoint x="327.5" y="260" as="sourcePoint"/>
                        <mxPoint x="377.5" y="210" as="targetPoint"/>
                        <Array as="points">
                            <mxPoint x="307.5" y="75"/>
                            <mxPoint x="307.5" y="180"/>
                        </Array>
                    </mxGeometry>
                </mxCell>
                <mxCell id="QuqB5jz6b60mE_OSVaNS-5" value="Fail" style="text;html=1;strokeColor=none;fillColor=none;align=center;verticalAlign=middle;whiteSpace=wrap;rounded=0;fontColor=#000000;" vertex="1" parent="eE7crEISOZ_tEfes29lh-1">
                    <mxGeometry x="247.5" y="110" width="60" height="30" as="geometry"/>
                </mxCell>
                <mxCell id="QuqB5jz6b60mE_OSVaNS-6" value="" style="endArrow=classic;html=1;rounded=0;exitX=0.5;exitY=1;exitDx=0;exitDy=0;fontColor=#000000;" edge="1" parent="eE7crEISOZ_tEfes29lh-1" source="QuqB5jz6b60mE_OSVaNS-3">
                    <mxGeometry width="50" height="50" relative="1" as="geometry">
                        <mxPoint x="327.5" y="270" as="sourcePoint"/>
                        <mxPoint x="377.5" y="250" as="targetPoint"/>
                    </mxGeometry>
                </mxCell>
                <mxCell id="QuqB5jz6b60mE_OSVaNS-7" value="Pass" style="text;html=1;strokeColor=none;fillColor=none;align=center;verticalAlign=middle;whiteSpace=wrap;rounded=0;fontColor=#000000;" vertex="1" parent="eE7crEISOZ_tEfes29lh-1">
                    <mxGeometry x="387.5" y="210" width="60" height="30" as="geometry"/>
                </mxCell>
                <mxCell id="Yb2me5kN-YOHWJArsziT-3" style="edgeStyle=none;rounded=0;html=1;exitX=1;exitY=0.5;exitDx=0;exitDy=0;entryX=1;entryY=0.5;entryDx=0;entryDy=0;fontColor=#000000;startArrow=none;startFill=0;endArrow=classic;endFill=1;" edge="1" parent="eE7crEISOZ_tEfes29lh-1" source="QuqB5jz6b60mE_OSVaNS-8" target="QuqB5jz6b60mE_OSVaNS-0">
                    <mxGeometry relative="1" as="geometry">
                        <Array as="points">
                            <mxPoint x="480" y="270"/>
                            <mxPoint x="480" y="75"/>
                        </Array>
                    </mxGeometry>
                </mxCell>
                <mxCell id="QuqB5jz6b60mE_OSVaNS-8" value="Request/Response Handler" style="rounded=0;whiteSpace=wrap;html=1;fontColor=#000000;labelBackgroundColor=default;" vertex="1" parent="eE7crEISOZ_tEfes29lh-1">
                    <mxGeometry x="322.5" y="250" width="110" height="40" as="geometry"/>
                </mxCell>
                <mxCell id="QuqB5jz6b60mE_OSVaNS-9" style="edgeStyle=none;rounded=0;html=1;fontColor=#000000;startArrow=classic;startFill=1;endArrow=none;endFill=0;" edge="1" parent="eE7crEISOZ_tEfes29lh-1" source="QuqB5jz6b60mE_OSVaNS-14">
                    <mxGeometry relative="1" as="geometry">
                        <mxPoint x="377.5" y="330" as="sourcePoint"/>
                        <mxPoint x="384" y="290" as="targetPoint"/>
                    </mxGeometry>
                </mxCell>
                <mxCell id="QuqB5jz6b60mE_OSVaNS-15" value="" style="swimlane;startSize=0;fontColor=#000000;" vertex="1" parent="eE7crEISOZ_tEfes29lh-1">
                    <mxGeometry x="260" y="220" width="390" height="420" as="geometry"/>
                </mxCell>
                <mxCell id="Yb2me5kN-YOHWJArsziT-1" style="edgeStyle=none;rounded=0;html=1;exitX=0.5;exitY=1;exitDx=0;exitDy=0;fontColor=#000000;startArrow=classic;startFill=1;endArrow=classic;endFill=1;" edge="1" parent="QuqB5jz6b60mE_OSVaNS-15" source="QuqB5jz6b60mE_OSVaNS-14" target="Yb2me5kN-YOHWJArsziT-0">
                    <mxGeometry relative="1" as="geometry"/>
                </mxCell>
                <mxCell id="QuqB5jz6b60mE_OSVaNS-14" value="Job Registery&lt;br&gt;(Job ID, user ID, status, output)" style="rounded=0;whiteSpace=wrap;html=1;fontColor=#000000;labelBackgroundColor=default;" vertex="1" parent="QuqB5jz6b60mE_OSVaNS-15">
                    <mxGeometry x="64.37" y="160" width="120" height="60" as="geometry"/>
                </mxCell>
                <mxCell id="QuqB5jz6b60mE_OSVaNS-12" value="Query status or Stream output" style="text;html=1;strokeColor=none;fillColor=none;align=center;verticalAlign=middle;whiteSpace=wrap;rounded=0;fontColor=#000000;" vertex="1" parent="QuqB5jz6b60mE_OSVaNS-15">
                    <mxGeometry y="110" width="130" height="30" as="geometry"/>
                </mxCell>
                <mxCell id="Yb2me5kN-YOHWJArsziT-0" value="Validate&lt;br&gt;user privilege" style="rhombus;whiteSpace=wrap;html=1;fontColor=#000000;" vertex="1" parent="QuqB5jz6b60mE_OSVaNS-15">
                    <mxGeometry x="74.37" y="250" width="100" height="100" as="geometry"/>
                </mxCell>
                <mxCell id="Yb2me5kN-YOHWJArsziT-5" value="Send output/status" style="text;html=1;strokeColor=none;fillColor=none;align=center;verticalAlign=middle;whiteSpace=wrap;rounded=0;fontColor=#000000;" vertex="1" parent="QuqB5jz6b60mE_OSVaNS-15">
                    <mxGeometry x="250" y="150" width="130" height="30" as="geometry"/>
                </mxCell>
                <mxCell id="QuqB5jz6b60mE_OSVaNS-19" value="Job runner Service" style="text;html=1;strokeColor=none;fillColor=none;align=center;verticalAlign=middle;whiteSpace=wrap;rounded=0;fontColor=#000000;" vertex="1" parent="eE7crEISOZ_tEfes29lh-1">
                    <mxGeometry x="180" y="280" width="60" height="30" as="geometry"/>
                </mxCell>
                <mxCell id="Yb2me5kN-YOHWJArsziT-2" style="edgeStyle=none;rounded=0;html=1;exitX=1;exitY=0.75;exitDx=0;exitDy=0;fontColor=#000000;startArrow=none;startFill=0;endArrow=classic;endFill=1;" edge="1" parent="eE7crEISOZ_tEfes29lh-1" source="QuqB5jz6b60mE_OSVaNS-14">
                    <mxGeometry relative="1" as="geometry">
                        <mxPoint x="434" y="280" as="targetPoint"/>
                        <Array as="points">
                            <mxPoint x="520" y="425"/>
                            <mxPoint x="520" y="280"/>
                        </Array>
                    </mxGeometry>
                </mxCell>
                <mxCell id="Yb2me5kN-YOHWJArsziT-4" value="Send Response" style="text;html=1;strokeColor=none;fillColor=none;align=center;verticalAlign=middle;whiteSpace=wrap;rounded=0;fontColor=#000000;" vertex="1" parent="eE7crEISOZ_tEfes29lh-1">
                    <mxGeometry x="490" y="130" width="60" height="30" as="geometry"/>
                </mxCell>
            </root>
        </mxGraphModel>
    </diagram>
    <diagram id="JN8z5FrSAzkDFupPtyGG" name="Page-4">
        <mxGraphModel dx="1181" dy="608" grid="1" gridSize="10" guides="1" tooltips="1" connect="1" arrows="1" fold="1" page="1" pageScale="1" pageWidth="850" pageHeight="1100" math="0" shadow="0">
            <root>
                <mxCell id="LDN6tG0kDFYENGzwPTci-0"/>
                <mxCell id="LDN6tG0kDFYENGzwPTci-1" parent="LDN6tG0kDFYENGzwPTci-0"/>
                <mxCell id="LDN6tG0kDFYENGzwPTci-2" value="Data Streaming" style="text;html=1;strokeColor=none;fillColor=none;align=center;verticalAlign=middle;whiteSpace=wrap;rounded=0;" vertex="1" parent="LDN6tG0kDFYENGzwPTci-1">
                    <mxGeometry x="380" width="60" height="30" as="geometry"/>
                </mxCell>
            </root>
        </mxGraphModel>
    </diagram>
</mxfile>